<svg width="14" height="15" viewBox="0 0 14 15" fill="none" xmlns="http://www.w3.org/2000/svg">
<path fill-rule="evenodd" clip-rule="evenodd" d="M2.31506 8.61751L7.96788 3.07635C8.69517 2.36343 9.87481 2.36343 10.6021 3.07635L11.3571 3.81647C12.0844 4.5294 12.0844 5.68573 11.3571 6.39866L5.68202 11.9617C5.35751 12.2798 4.91754 12.4583 4.45831 12.4583H2.13415C1.91824 12.4583 1.74474 12.2839 1.75012 12.0723L1.80859 9.77351C1.82021 9.33902 2.00157 8.9248 2.31506 8.61751ZM10.8139 4.349L10.0588 3.60888C9.63159 3.19007 8.9384 3.19007 8.51115 3.60888L8.0723 4.03906L10.3753 6.29606L10.8139 5.86613C11.2411 5.44731 11.2411 4.76782 10.8139 4.349ZM2.85832 9.15004L7.52904 4.57159L9.83202 6.82859L5.13876 11.4291L5.07633 11.4852C4.90391 11.6268 4.68546 11.7051 4.45831 11.7051L2.52785 11.7049L2.57663 9.79276C2.58308 9.5515 2.68407 9.32085 2.85832 9.15004ZM12.25 12.0818C12.25 11.8738 12.078 11.7052 11.8659 11.7052H7.85808L7.80595 11.7086C7.61845 11.7336 7.47393 11.8911 7.47393 12.0818C7.47393 12.2897 7.64592 12.4583 7.85808 12.4583H11.8659L11.918 12.4549C12.1055 12.43 12.25 12.2724 12.25 12.0818Z" fill="#7466E2"/>
</svg>
